<?xml version="1.0" encoding="utf-8"?>
<!-- Generator: Adobe Illustrator 26.3.0, SVG Export Plug-In . SVG Version: 6.00 Build 0)  -->
<svg version="1.1" id="Layer_1" xmlns="http://www.w3.org/2000/svg" xmlns:xlink="http://www.w3.org/1999/xlink" x="0px" y="0px"
	 viewBox="0 0 252.26 181.79" style="enable-background:new 0 0 252.26 181.79;" xml:space="preserve">
<style type="text/css">
	.st0{fill:#FFBC10;}
	.st1{fill:#F91C51;}
	.st2{fill:#8FC63E;}
	
		.st3{clip-path:url(#SVGID_00000048480637997185863700000007090147884097037229_);fill:url(#SVGID_00000111886503346159927470000001930148413515914401_);}
	.st4{fill:#FFFFFF;}
	.st5{opacity:0.5;}
	.st6{clip-path:url(#SVGID_00000165200452505880942720000002479752628370288303_);}
	.st7{clip-path:url(#SVGID_00000057852295545862979960000012826712445239671713_);}
	.st8{clip-path:url(#SVGID_00000057849781875938479440000008271369043608778156_);}
	.st9{clip-path:url(#SVGID_00000175281124247229579330000013479328083807231131_);}
	.st10{clip-path:url(#SVGID_00000066496116647038960470000017966850962236207527_);}
	.st11{clip-path:url(#SVGID_00000153696978246227466210000002199633289578342788_);}
	.st12{clip-path:url(#SVGID_00000176740724133556405460000009783251938098880446_);}
	.st13{clip-path:url(#SVGID_00000031899779601611461050000018299807021002421924_);}
	.st14{clip-path:url(#SVGID_00000004545287867957275690000001899983560627064243_);}
	.st15{clip-path:url(#SVGID_00000016050000258207345200000009365949426445701039_);}
	
		.st16{clip-path:url(#SVGID_00000179638796321822187870000004067335276915683994_);fill:url(#SVGID_00000150073206113175607370000003713084279494682806_);}
	.st17{clip-path:url(#SVGID_00000130622886356313794360000017945231368535511716_);}
	.st18{clip-path:url(#SVGID_00000096057969878115108710000004624923707952780203_);}
	.st19{clip-path:url(#SVGID_00000048478135338777404200000016518655913729500838_);}
	.st20{clip-path:url(#SVGID_00000072272410781602391930000007571727306218057647_);}
	.st21{clip-path:url(#SVGID_00000018214625191340502360000005259616739743861929_);}
	.st22{clip-path:url(#SVGID_00000094596484630760261160000005075618708709987730_);}
	.st23{clip-path:url(#SVGID_00000090982381861210927710000002017027064921837229_);}
	.st24{clip-path:url(#SVGID_00000018955044758285799890000016501507758157916051_);}
	.st25{clip-path:url(#SVGID_00000095312711238990615830000004403708926411520678_);}
	.st26{clip-path:url(#SVGID_00000131348747787277986490000015641028164559656635_);}
	
		.st27{clip-path:url(#SVGID_00000179605193979396275820000008177605440081515448_);fill:url(#SVGID_00000163762023006163215040000013167497017588997022_);}
	.st28{clip-path:url(#SVGID_00000150785839899986438850000015220943443244786576_);}
	.st29{clip-path:url(#SVGID_00000169550526122042267480000009865600935167542427_);}
	.st30{clip-path:url(#SVGID_00000151542709106287920430000016323401665737709737_);}
	.st31{clip-path:url(#SVGID_00000005965475397695120230000000917705622804325039_);}
	.st32{clip-path:url(#SVGID_00000026842957964324644010000016459091406394952849_);}
	.st33{clip-path:url(#SVGID_00000160162633971787079290000011155631927077662133_);}
	.st34{clip-path:url(#SVGID_00000021089154571027911210000008233892863627910589_);}
	.st35{clip-path:url(#SVGID_00000024716302635171602610000000245998676345628337_);}
	.st36{clip-path:url(#SVGID_00000127028272717216192640000001259371970479268512_);}
	.st37{clip-path:url(#SVGID_00000153666373789507673910000000939986801172902281_);}
</style>
<g>
	<polygon class="st0" points="99.76,139.15 87.47,111.51 81.97,111.51 81.97,153.38 87.7,153.38 87.7,125.09 97.72,147.56 
		101.81,147.56 111.83,124.53 111.83,153.38 117.56,153.38 117.56,111.51 112.06,111.51 	"/>
	<rect x="127.35" y="111.51" class="st0" width="5.87" height="5.87"/>
	<rect x="127.35" y="123.49" class="st0" width="5.87" height="29.89"/>
	<polygon class="st0" points="165.7,123.49 159.17,123.49 152.84,133.75 146.27,123.49 139.73,123.49 149.66,138.2 139.27,153.38 
		145.78,153.38 152.87,143.04 159.66,153.38 166.17,153.38 155.9,138.41 	"/>
	<g>
		<path class="st0" d="M189.9,124.93c-1.77-1.25-3.9-1.87-6.4-1.87c-2.65,0-4.91,0.55-6.79,1.64c-1.88,1.09-3.32,2.69-4.31,4.78
			c-0.99,2.09-1.48,4.62-1.48,7.57v3.37c0,2.84,0.52,5.26,1.54,7.27c1.02,2.01,2.52,3.53,4.48,4.56c1.96,1.04,4.32,1.56,7.08,1.56
			c1.86,0,3.71-0.39,5.56-1.17c1.84-0.78,3.5-1.88,4.98-3.3l-3.86-3.86c-0.92,0.86-1.97,1.54-3.14,2.02
			c-1.17,0.48-2.35,0.72-3.54,0.72c-2.4,0-4.25-0.66-5.56-1.99c-1.26-1.28-1.89-3.1-1.94-5.44h18.81v-1.96
			c0-3.3-0.46-6.13-1.39-8.49C193.01,127.98,191.66,126.18,189.9,124.93 M176.55,136.07c0.1-2.34,0.67-4.2,1.79-5.53
			c1.22-1.46,2.94-2.19,5.17-2.19c1.82,0,3.28,0.68,4.36,2.03c1.08,1.35,1.71,3.25,1.89,5.69H176.55z"/>
		<path class="st0" d="M220.78,123.65c-1.1-0.4-2.34-0.59-3.7-0.59c-1.77,0-3.38,0.49-4.84,1.48c-1.16,0.79-2.15,1.84-2.96,3.13
			v-4.18h-5.87v29.89h5.87v-18.92c0-1.82,0.51-3.25,1.54-4.28c1.02-1.03,2.47-1.54,4.33-1.54c1.03,0,1.95,0.16,2.74,0.49
			c0.79,0.33,1.44,0.81,1.96,1.44l3.83-5.18C222.85,124.62,221.88,124.04,220.78,123.65"/>
		<path class="st1" d="M92.12,73.19c0,3.29-0.89,5.85-2.67,7.67c-1.78,1.82-4.29,2.72-7.53,2.72c-3.21,0-5.7-0.91-7.47-2.72
			c-1.76-1.82-2.65-4.37-2.65-7.67V36.84H60.99v36.08c0,4.5,0.82,8.36,2.45,11.56c1.63,3.2,4.02,5.64,7.15,7.31
			c3.13,1.67,6.91,2.51,11.34,2.51c4.43,0,8.21-0.83,11.36-2.51c3.15-1.67,5.54-4.11,7.19-7.31c1.65-3.2,2.47-7.05,2.47-11.56V36.84
			H92.12V73.19z"/>
		<rect x="113.22" y="36.84" class="st1" width="11.22" height="57.45"/>
		<path class="st1" d="M147.46,52.54c0.75-1.59,1.84-2.8,3.26-3.63c1.42-0.83,3.15-1.24,5.18-1.24c1.55,0,2.96,0.36,4.21,1.07
			c1.25,0.71,2.32,1.74,3.2,3.08s1.54,2.96,1.96,4.86h11.22c-0.71-4.19-2-7.77-3.85-10.73c-1.86-2.96-4.21-5.22-7.05-6.78
			c-2.84-1.55-6.07-2.33-9.68-2.33c-4.37,0-8.11,0.84-11.22,2.53c-3.11,1.68-5.48,4.13-7.11,7.33c-1.64,3.2-2.45,7.07-2.45,11.6
			v14.58c0,4.53,0.82,8.4,2.45,11.6c1.63,3.2,4,5.64,7.11,7.31c3.11,1.67,6.85,2.51,11.22,2.51c3.61,0,6.83-0.78,9.66-2.33
			c2.83-1.56,5.18-3.81,7.04-6.78c1.86-2.96,3.15-6.54,3.89-10.73h-11.22c-0.4,1.92-1.03,3.56-1.9,4.9
			c-0.87,1.34-1.94,2.37-3.2,3.06c-1.26,0.7-2.68,1.05-4.27,1.05c-2.03,0-3.75-0.42-5.18-1.24c-1.42-0.83-2.51-2.04-3.26-3.62
			c-0.75-1.58-1.13-3.49-1.13-5.73V58.29C146.34,56.06,146.71,54.14,147.46,52.54"/>
		<polygon class="st1" points="224.06,47.27 224.06,36.84 196.4,36.84 189.49,36.84 185.58,36.84 185.58,94.29 189.49,94.29 
			196.4,94.29 224.06,94.29 224.06,83.86 196.4,83.86 196.4,70.98 219.72,70.98 219.72,60.55 196.4,60.55 196.4,47.27 		"/>
		<path class="st1" d="M45.37,36.84c-3.73,0-6.78,3.05-6.78,6.78v76.14c0,3.86-0.81,7.59-2.24,10.98l-0.41-0.14
			c-0.54-0.2-1.15,0.07-1.36,0.61c-0.14,0.48,0.07,1.09,0.61,1.29l0.27,0.07l12.68,4.81l0.61,0.2c0.07,0.07,0.2,0.07,0.34,0.07
			c0.41,0,0.81-0.27,0.95-0.68c0.2-0.47-0.07-1.08-0.61-1.29l-0.41-0.14c2.03-4.88,3.12-10.17,3.12-15.8V43.62
			C52.15,39.89,49.1,36.84,45.37,36.84"/>
		<path class="st1" d="M39.81,149.25l-9.97-9.22l-0.2-0.2c-0.41-0.41-1.09-0.41-1.42,0c-0.41,0.47-0.41,1.08,0,1.49l0.13,0.14
			c-4.47,3.59-10.03,5.9-16.14,6.24l3.12,13.29c8.75-0.95,16.68-4.75,22.98-10.37l0.61,0.61c0.2,0.2,0.41,0.27,0.68,0.27
			c0.27,0,0.54-0.07,0.74-0.34c0.41-0.41,0.34-1.02-0.07-1.42L39.81,149.25z"/>
		<path class="st1" d="M43.41,145.18l-10.85-8l-0.47-0.34c-0.48-0.34-1.15-0.2-1.42,0.2c-0.34,0.48-0.27,1.15,0.2,1.42l0.34,0.2
			l10.92,8.07l0.34,0.27c0.2,0.13,0.41,0.2,0.61,0.2c0.27,0,0.61-0.14,0.81-0.41c0.34-0.47,0.2-1.08-0.2-1.42L43.41,145.18z"/>
		<path class="st1" d="M46.73,140.64l-0.2-0.14l-11.86-6.51l-0.48-0.27c-0.47-0.27-1.08-0.07-1.36,0.41
			c-0.27,0.47-0.14,1.15,0.41,1.42l0.34,0.2l11.86,6.51l0.34,0.2c0.14,0.07,0.27,0.07,0.48,0.07c0.34,0,0.68-0.14,0.88-0.47
			C47.41,141.52,47.21,140.91,46.73,140.64"/>
		<path class="st2" d="M121.38,22.45c0,0-2.37-14.77-8.76-9.2c-6.39,5.58,6.39,21.17,6.39,21.17s11.75-4.36,13.73-14.39
			C134.73,10.01,121.38,22.45,121.38,22.45"/>
	</g>
	<g>
		<defs>
			<rect id="SVGID_1_" x="-54.97" y="488.06" width="346.22" height="14.81"/>
		</defs>
		<clipPath id="SVGID_00000052783526054141096520000001522505993026652851_">
			<use xlink:href="#SVGID_1_"  style="overflow:visible;"/>
		</clipPath>
		
			<linearGradient id="SVGID_00000179614001516621578230000012733207253531405715_" gradientUnits="userSpaceOnUse" x1="-156.0553" y1="696.6128" x2="-155.0553" y2="696.6128" gradientTransform="matrix(346.2222 0 0 -346.2222 53974.8359 241678.2812)">
			<stop  offset="0" style="stop-color:#F91C51"/>
			<stop  offset="1" style="stop-color:#FFFFFF"/>
		</linearGradient>
		
			<rect x="-54.97" y="488.06" style="clip-path:url(#SVGID_00000052783526054141096520000001522505993026652851_);fill:url(#SVGID_00000179614001516621578230000012733207253531405715_);" width="346.22" height="14.81"/>
	</g>
	<g>
		<path class="st4" d="M-48.99,498.65l0.38-1.84h-0.73v-0.65h0.86l0.32-1.57h-1.18v-0.64h1.31l0.38-1.86h0.65l-0.38,1.86h1.36
			l0.38-1.86h0.65l-0.38,1.86h0.75v0.64h-0.88l-0.32,1.57h1.2v0.65h-1.33l-0.38,1.84h-0.65l0.37-1.84h-1.36l-0.38,1.84H-48.99z
			 M-47.84,496.16h1.36l0.32-1.57h-1.36L-47.84,496.16z"/>
		<path class="st4" d="M-43.74,498.54v-3.99h-0.69v-0.61h0.69v-0.49c0-0.31,0.03-0.54,0.08-0.69c0.08-0.2,0.21-0.37,0.4-0.49
			c0.19-0.13,0.45-0.19,0.79-0.19c0.22,0,0.46,0.03,0.73,0.08l-0.12,0.68c-0.16-0.03-0.31-0.04-0.46-0.04c-0.24,0-0.4,0.05-0.5,0.15
			c-0.1,0.1-0.15,0.29-0.15,0.57v0.42h0.9v0.61h-0.9v3.99H-43.74z"/>
		<path class="st4" d="M-38.39,496.35l-0.26,0.92c-0.29-0.18-0.48-0.47-0.57-0.89c-0.07-0.34-0.11-0.95-0.11-1.81
			c-0.2,0.07-0.34,0.11-0.44,0.13c-0.1,0.02-0.19,0.03-0.29,0.03c-0.31,0-0.56-0.06-0.75-0.19s-0.28-0.32-0.28-0.56
			c0-0.18,0.04-0.4,0.13-0.66c0.11-0.33,0.26-0.6,0.44-0.81c0.24-0.26,0.52-0.39,0.84-0.39c0.24,0,0.42,0.12,0.55,0.38
			c0.1,0.2,0.17,0.5,0.2,0.91c0.02,0.25,0.03,0.61,0.03,1.1c0.06,0.66,0.14,1.13,0.23,1.4C-38.64,496.02-38.54,496.17-38.39,496.35z
			 M-39.37,493.82c0-0.26-0.03-0.46-0.1-0.6c-0.09-0.19-0.25-0.28-0.48-0.28c-0.17,0-0.34,0.06-0.5,0.19s-0.24,0.25-0.24,0.36
			c0,0.12,0.07,0.21,0.21,0.28c0.14,0.07,0.31,0.1,0.52,0.1c0.09,0,0.19-0.01,0.32-0.03S-39.44,493.83-39.37,493.82z"/>
		<path class="st4" d="M-34.48,495.47c0,0.26-0.02,0.56-0.06,0.9c-0.01,0.08-0.05,0.39-0.12,0.9h-0.15c0-0.07,0.01-0.27,0.02-0.6
			c0-0.61-0.08-1.18-0.25-1.71c-0.13-0.41-0.31-0.8-0.54-1.16c-0.12-0.18-0.28-0.41-0.49-0.67l0.42-0.93
			c0.23,0.27,0.41,0.53,0.55,0.76c0.2,0.33,0.34,0.68,0.45,1.05C-34.55,494.45-34.48,494.93-34.48,495.47z"/>
		<path class="st4" d="M-29.14,496.86l0.77,0.1c-0.08,0.53-0.3,0.94-0.64,1.24c-0.34,0.3-0.77,0.45-1.27,0.45
			c-0.63,0-1.13-0.21-1.52-0.62s-0.57-1-0.57-1.77c0-0.5,0.08-0.93,0.25-1.3c0.16-0.37,0.42-0.65,0.75-0.84
			c0.34-0.19,0.7-0.28,1.1-0.28c0.5,0,0.91,0.13,1.23,0.38c0.32,0.25,0.52,0.61,0.61,1.08l-0.76,0.12c-0.07-0.31-0.2-0.54-0.38-0.7
			s-0.4-0.23-0.66-0.23c-0.39,0-0.71,0.14-0.96,0.42c-0.25,0.28-0.37,0.73-0.37,1.33c0,0.62,0.12,1.07,0.35,1.35
			c0.24,0.28,0.55,0.42,0.93,0.42c0.31,0,0.56-0.09,0.77-0.28C-29.32,497.54-29.19,497.25-29.14,496.86z"/>
		<path class="st4" d="M-24.41,494.56c0,0.5-0.15,0.91-0.45,1.24c-0.34,0.37-0.82,0.56-1.44,0.56c-0.35,0-0.62-0.06-0.83-0.18
			c-0.23-0.14-0.35-0.34-0.35-0.6c0-0.23,0.06-0.54,0.19-0.93c0.14-0.44,0.32-0.8,0.52-1.08c0.25-0.35,0.5-0.52,0.77-0.52
			c0.34,0,0.69,0.17,1.04,0.51C-24.59,493.89-24.41,494.23-24.41,494.56z M-24.73,495.02c0-0.17-0.12-0.34-0.35-0.53
			c-0.19-0.16-0.44-0.3-0.73-0.43c-0.27-0.12-0.47-0.18-0.61-0.18c-0.19,0-0.35,0.13-0.48,0.39c-0.1,0.21-0.16,0.42-0.16,0.63
			c0,0.24,0.1,0.41,0.3,0.52c0.18,0.1,0.45,0.15,0.81,0.15c0.35,0,0.64-0.05,0.87-0.16C-24.85,495.3-24.73,495.17-24.73,495.02z"/>
		<path class="st4" d="M-20.73,495.47c0,0.26-0.02,0.56-0.06,0.9c-0.01,0.08-0.05,0.39-0.12,0.9h-0.15c0-0.07,0.01-0.27,0.02-0.6
			c0-0.61-0.08-1.18-0.25-1.71c-0.13-0.41-0.31-0.8-0.54-1.16c-0.12-0.18-0.28-0.41-0.49-0.67l0.42-0.93
			c0.23,0.27,0.41,0.53,0.55,0.76c0.2,0.33,0.34,0.68,0.45,1.05C-20.79,494.45-20.73,494.93-20.73,495.47z"/>
	</g>
	<g>
		<g class="st5">
			<g>
				<defs>
					<rect id="SVGID_00000094602682963810355570000003752200709255842214_" x="-51" y="507.62" width="14.72" height="6.6"/>
				</defs>
				<clipPath id="SVGID_00000023263506567650406720000012684500742799859594_">
					<use xlink:href="#SVGID_00000094602682963810355570000003752200709255842214_"  style="overflow:visible;"/>
				</clipPath>
				<g style="clip-path:url(#SVGID_00000023263506567650406720000012684500742799859594_);">
					<path class="st1" d="M-50.86,509.98l0.37-0.04c0.35,0.74,0.58,1.89,0.61,2.87h-0.34C-50.27,511.86-50.45,510.85-50.86,509.98z"
						/>
					<path class="st1" d="M-49.55,511.47c0-0.23,0.15-0.38,0.37-0.38c0.2,0,0.36,0.15,0.36,0.38c0,0.23-0.15,0.37-0.36,0.37h0
						C-49.4,511.84-49.55,511.69-49.55,511.47z"/>
					<path class="st1" d="M-48.4,511.47c0-0.23,0.15-0.38,0.37-0.38c0.2,0,0.36,0.15,0.36,0.38c0,0.23-0.15,0.37-0.36,0.37h0
						C-48.26,511.84-48.4,511.69-48.4,511.47z"/>
					<path class="st1" d="M-45.62,509.84l0.23,0.18c-0.49,0.77-1.16,1.89-1.67,2.88l-0.25-0.17
						C-46.94,512.02-46.12,510.62-45.62,509.84z M-47.22,510.19c0-0.15,0.11-0.27,0.26-0.27c0.15,0,0.26,0.11,0.26,0.27
						c0,0.17-0.1,0.27-0.26,0.27C-47.11,510.47-47.22,510.36-47.22,510.19z M-45.75,512.27c0.15,0,0.26,0.11,0.26,0.26
						c0,0.17-0.1,0.27-0.26,0.27c-0.15,0-0.26-0.1-0.26-0.27C-46.01,512.38-45.9,512.27-45.75,512.27z"/>
				</g>
			</g>
		</g>
		<g class="st5">
			<g>
				<defs>
					<rect id="SVGID_00000103238393299256218350000008425637847838916008_" x="-13.34" y="507.62" width="11.31" height="6.6"/>
				</defs>
				<clipPath id="SVGID_00000103959103590536494100000008928890717987908492_">
					<use xlink:href="#SVGID_00000103238393299256218350000008425637847838916008_"  style="overflow:visible;"/>
				</clipPath>
				<g style="clip-path:url(#SVGID_00000103959103590536494100000008928890717987908492_);">
					<path class="st1" d="M-11.97,511.46c-0.08,0.02-0.18,0.03-0.34,0.03c-0.45,0-0.84-0.26-0.84-0.76c0-0.46,0.36-0.81,0.74-0.81
						c0.33,0,0.62,0.24,0.72,1.03c0.09,0.83,0.12,1.26,0.29,1.85h-0.35C-11.87,512.36-11.92,511.86-11.97,511.46z M-12,511.12
						c-0.05-0.69-0.24-0.83-0.47-0.83s-0.39,0.2-0.39,0.41c0,0.31,0.26,0.44,0.62,0.44C-12.16,511.14-12.04,511.13-12,511.12z"/>
					<path class="st1" d="M-11.06,511.47c0-0.23,0.15-0.38,0.37-0.38c0.2,0,0.36,0.15,0.36,0.38c0,0.23-0.15,0.37-0.36,0.37h0
						C-10.91,511.84-11.06,511.69-11.06,511.47z"/>
					<path class="st1" d="M-8.27,509.84l0.23,0.18c-0.49,0.77-1.16,1.89-1.67,2.88l-0.25-0.17C-9.59,512.02-8.77,510.62-8.27,509.84
						z M-9.87,510.19c0-0.15,0.11-0.27,0.26-0.27c0.15,0,0.26,0.11,0.26,0.27c0,0.17-0.1,0.27-0.26,0.27
						C-9.76,510.47-9.87,510.36-9.87,510.19z M-8.4,512.27c0.15,0,0.26,0.11,0.26,0.26c0,0.17-0.1,0.27-0.26,0.27
						c-0.15,0-0.26-0.1-0.26-0.27C-8.66,512.38-8.55,512.27-8.4,512.27z"/>
				</g>
			</g>
		</g>
		<g class="st5">
			<g>
				<defs>
					<rect id="SVGID_00000054947264530659876760000015506847316592862126_" x="22.61" y="507.62" width="11.31" height="6.6"/>
				</defs>
				<clipPath id="SVGID_00000146468753964618706310000003999188409741133958_">
					<use xlink:href="#SVGID_00000054947264530659876760000015506847316592862126_"  style="overflow:visible;"/>
				</clipPath>
				<g style="clip-path:url(#SVGID_00000146468753964618706310000003999188409741133958_);">
					<path class="st1" d="M23.53,509.98l0.4-0.03c0.15,0.68,0.47,1.97,0.92,2.85h-0.4c-0.29-0.6-0.62-1.73-0.72-2.33h-0.01
						c-0.08,0.55-0.36,1.6-0.63,2.33h-0.37C22.97,512.2,23.36,510.85,23.53,509.98z"/>
					<path class="st1" d="M25.16,511.47c0-0.23,0.15-0.38,0.37-0.38c0.2,0,0.36,0.15,0.36,0.38c0,0.23-0.15,0.37-0.36,0.37h0
						C25.3,511.84,25.16,511.69,25.16,511.47z"/>
					<path class="st1" d="M27.94,509.84l0.23,0.18c-0.49,0.77-1.16,1.89-1.67,2.88l-0.25-0.17
						C26.62,512.02,27.44,510.62,27.94,509.84z M26.34,510.19c0-0.15,0.11-0.27,0.26-0.27c0.15,0,0.26,0.11,0.26,0.27
						c0,0.17-0.1,0.27-0.26,0.27C26.45,510.47,26.34,510.36,26.34,510.19z M27.81,512.27c0.15,0,0.26,0.11,0.26,0.26
						c0,0.17-0.1,0.27-0.26,0.27c-0.15,0-0.26-0.1-0.26-0.27C27.55,512.38,27.66,512.27,27.81,512.27z"/>
				</g>
			</g>
		</g>
		<g class="st5">
			<g>
				<defs>
					<rect id="SVGID_00000134969586093687867340000009192788409105423018_" x="58.56" y="507.62" width="11.31" height="6.6"/>
				</defs>
				<clipPath id="SVGID_00000074415321305666779550000016460133616565905837_">
					<use xlink:href="#SVGID_00000134969586093687867340000009192788409105423018_"  style="overflow:visible;"/>
				</clipPath>
				<g style="clip-path:url(#SVGID_00000074415321305666779550000016460133616565905837_);">
					<path class="st1" d="M58.66,509.98l0.41-0.02c0.3,0.61,0.63,1.75,0.73,2.4h0.01c0.08-0.53,0.35-1.67,0.62-2.4l0.37,0.02
						c-0.26,0.6-0.64,1.96-0.81,2.83h-0.4C59.44,512.05,59.13,510.86,58.66,509.98z"/>
					<path class="st1" d="M61.11,511.47c0-0.23,0.15-0.38,0.37-0.38c0.2,0,0.36,0.15,0.36,0.38c0,0.23-0.15,0.37-0.36,0.37h0
						C61.25,511.84,61.11,511.69,61.11,511.47z"/>
					<path class="st1" d="M63.89,509.84l0.23,0.18c-0.49,0.77-1.16,1.89-1.67,2.88l-0.25-0.17
						C62.57,512.02,63.39,510.62,63.89,509.84z M62.29,510.19c0-0.15,0.11-0.27,0.26-0.27c0.15,0,0.26,0.11,0.26,0.27
						c0,0.17-0.1,0.27-0.26,0.27C62.4,510.47,62.29,510.36,62.29,510.19z M63.76,512.27c0.15,0,0.26,0.11,0.26,0.26
						c0,0.17-0.1,0.27-0.26,0.27c-0.15,0-0.26-0.1-0.26-0.27C63.5,512.38,63.61,512.27,63.76,512.27z"/>
				</g>
			</g>
		</g>
		<g class="st5">
			<g>
				<defs>
					<rect id="SVGID_00000025421389041481135080000006993635639716376744_" x="94.51" y="507.62" width="11.31" height="6.6"/>
				</defs>
				<clipPath id="SVGID_00000075152931572225549060000004523007190781708939_">
					<use xlink:href="#SVGID_00000025421389041481135080000006993635639716376744_"  style="overflow:visible;"/>
				</clipPath>
				<g style="clip-path:url(#SVGID_00000075152931572225549060000004523007190781708939_);">
					<path class="st1" d="M95.63,510.35h-0.46c-0.17,0-0.44,0-0.6-0.05l0.05-0.36c0.12,0.03,0.37,0.04,0.7,0.04h0.67
						c-0.02,0.21-0.03,0.44-0.03,0.66c0,0.55,0.1,1.5,0.4,2.17H96C95.67,512.02,95.61,511.05,95.63,510.35z"/>
					<path class="st1" d="M96.72,511.47c0-0.23,0.15-0.38,0.37-0.38c0.2,0,0.36,0.15,0.36,0.38c0,0.23-0.15,0.37-0.36,0.37h0
						C96.87,511.84,96.72,511.69,96.72,511.47z"/>
					<path class="st1" d="M99.5,509.84l0.23,0.18c-0.49,0.77-1.16,1.89-1.67,2.88l-0.25-0.17C98.19,512.02,99,510.62,99.5,509.84z
						 M97.91,510.19c0-0.15,0.11-0.27,0.26-0.27c0.15,0,0.26,0.11,0.26,0.27c0,0.17-0.1,0.27-0.26,0.27
						C98.01,510.47,97.91,510.36,97.91,510.19z M99.37,512.27c0.15,0,0.26,0.11,0.26,0.26c0,0.17-0.1,0.27-0.26,0.27
						c-0.15,0-0.26-0.1-0.26-0.27C99.12,512.38,99.23,512.27,99.37,512.27z"/>
				</g>
			</g>
		</g>
		<g class="st5">
			<g>
				<defs>
					<rect id="SVGID_00000176001487112130100980000010368920697550471853_" x="130.46" y="507.62" width="11.31" height="6.6"/>
				</defs>
				<clipPath id="SVGID_00000023259003432759439360000004756341657658303360_">
					<use xlink:href="#SVGID_00000176001487112130100980000010368920697550471853_"  style="overflow:visible;"/>
				</clipPath>
				<g style="clip-path:url(#SVGID_00000023259003432759439360000004756341657658303360_);">
					<path class="st1" d="M130.71,511.58c0-0.86,0.42-1.51,0.91-1.51c0.52,0,0.83,0.8,0.83,1.39c0,0.61-0.24,1.15-0.92,1.15
						C131.16,512.61,130.71,512.37,130.71,511.58z M132.16,511.5c0-0.19-0.09-1.03-0.59-1.03c-0.36,0-0.57,0.58-0.57,0.99
						c0,0.44,0.15,0.76,0.56,0.76C132.03,512.22,132.16,511.82,132.16,511.5z"/>
					<path class="st1" d="M132.89,511.47c0-0.23,0.15-0.38,0.37-0.38c0.2,0,0.36,0.15,0.36,0.38c0,0.23-0.15,0.37-0.36,0.37h0
						C133.04,511.84,132.89,511.69,132.89,511.47z"/>
					<path class="st1" d="M135.68,509.84l0.23,0.18c-0.49,0.77-1.16,1.89-1.67,2.88l-0.25-0.17
						C134.36,512.02,135.18,510.62,135.68,509.84z M134.08,510.19c0-0.15,0.11-0.27,0.26-0.27c0.15,0,0.26,0.11,0.26,0.27
						c0,0.17-0.1,0.27-0.26,0.27C134.19,510.47,134.08,510.36,134.08,510.19z M135.55,512.27c0.15,0,0.26,0.11,0.26,0.26
						c0,0.17-0.1,0.27-0.26,0.27c-0.15,0-0.26-0.1-0.26-0.27C135.29,512.38,135.4,512.27,135.55,512.27z"/>
				</g>
			</g>
		</g>
		<g class="st5">
			<g>
				<defs>
					<rect id="SVGID_00000169541110303034684360000003431714756442764929_" x="166.41" y="507.62" width="11.31" height="6.6"/>
				</defs>
				<clipPath id="SVGID_00000097487051184619356600000017459936289169815219_">
					<use xlink:href="#SVGID_00000169541110303034684360000003431714756442764929_"  style="overflow:visible;"/>
				</clipPath>
				<g style="clip-path:url(#SVGID_00000097487051184619356600000017459936289169815219_);">
					<path class="st1" d="M167.34,511.44c-0.43-0.03-0.65-0.27-0.65-0.57c0-0.46,0.48-0.83,1.07-0.95l0.1,0.33
						c-0.67,0.16-0.87,0.41-0.87,0.6c0,0.16,0.17,0.3,0.62,0.3c0.11,0,0.24-0.01,0.35-0.03v0.33c-0.6,0.14-0.78,0.43-0.78,0.63
						c0,0.16,0.11,0.35,0.47,0.35c0.17,0,0.4-0.04,0.63-0.16l0.02,0.34c-0.17,0.13-0.4,0.2-0.69,0.2c-0.36,0-0.74-0.22-0.74-0.67
						C166.87,511.85,167.07,511.6,167.34,511.44z"/>
					<path class="st1" d="M168.59,511.47c0-0.23,0.15-0.38,0.37-0.38c0.2,0,0.36,0.15,0.36,0.38c0,0.23-0.15,0.37-0.36,0.37h0
						C168.73,511.84,168.59,511.69,168.59,511.47z"/>
					<path class="st1" d="M171.37,509.84l0.23,0.18c-0.49,0.77-1.16,1.89-1.67,2.88l-0.25-0.17
						C170.05,512.02,170.87,510.62,171.37,509.84z M169.77,510.19c0-0.15,0.11-0.27,0.26-0.27c0.15,0,0.26,0.11,0.26,0.27
						c0,0.17-0.1,0.27-0.26,0.27C169.88,510.47,169.77,510.36,169.77,510.19z M171.24,512.27c0.15,0,0.26,0.11,0.26,0.26
						c0,0.17-0.1,0.27-0.26,0.27c-0.15,0-0.26-0.1-0.26-0.27C170.98,512.38,171.09,512.27,171.24,512.27z"/>
				</g>
			</g>
		</g>
		<g class="st5">
			<g>
				<defs>
					<rect id="SVGID_00000062915071036864982950000018356039368143876252_" x="202.36" y="507.62" width="11.31" height="6.6"/>
				</defs>
				<clipPath id="SVGID_00000005230532711913025750000005716724599017714051_">
					<use xlink:href="#SVGID_00000062915071036864982950000018356039368143876252_"  style="overflow:visible;"/>
				</clipPath>
				<g style="clip-path:url(#SVGID_00000005230532711913025750000005716724599017714051_);">
					<path class="st1" d="M202.5,509.98l0.37-0.04c0.05,0.09,0.14,0.34,0.17,0.42c0.07,0.17,0.17,0.23,0.3,0.23
						c0.17,0,0.27-0.1,0.27-0.33c0-0.07-0.01-0.2-0.03-0.27l0.25-0.02c0.04,0.41,0.14,0.5,0.27,0.5s0.19-0.07,0.19-0.34
						c0-0.04,0-0.09-0.01-0.14l0.25-0.02c0.01,0.08,0.02,0.17,0.02,0.26c0,0.41-0.2,0.59-0.4,0.59c-0.1,0-0.22-0.04-0.32-0.19
						c-0.07,0.23-0.23,0.33-0.4,0.33c-0.07,0-0.19-0.03-0.26-0.11c0.14,0.46,0.27,1.18,0.3,1.97h-0.34
						C203.09,511.8,202.91,510.84,202.5,509.98z"/>
					<path class="st1" d="M204.89,511.47c0-0.23,0.15-0.38,0.37-0.38c0.2,0,0.36,0.15,0.36,0.38c0,0.23-0.15,0.37-0.36,0.37h0
						C205.04,511.84,204.89,511.69,204.89,511.47z"/>
					<path class="st1" d="M207.68,509.84l0.23,0.18c-0.49,0.77-1.16,1.89-1.67,2.88l-0.25-0.17
						C206.36,512.02,207.18,510.62,207.68,509.84z M206.08,510.19c0-0.15,0.11-0.27,0.26-0.27c0.15,0,0.26,0.11,0.26,0.27
						c0,0.17-0.1,0.27-0.26,0.27C206.19,510.47,206.08,510.36,206.08,510.19z M207.55,512.27c0.15,0,0.26,0.11,0.26,0.26
						c0,0.17-0.1,0.27-0.26,0.27c-0.15,0-0.26-0.1-0.26-0.27C207.29,512.38,207.4,512.27,207.55,512.27z"/>
				</g>
			</g>
		</g>
		<g class="st5">
			<g>
				<defs>
					<rect id="SVGID_00000148657175149605697500000012237275947326715303_" x="238.31" y="507.62" width="11.31" height="6.6"/>
				</defs>
				<clipPath id="SVGID_00000050635606014429960570000010083788299391505300_">
					<use xlink:href="#SVGID_00000148657175149605697500000012237275947326715303_"  style="overflow:visible;"/>
				</clipPath>
				<g style="clip-path:url(#SVGID_00000050635606014429960570000010083788299391505300_);">
					<path class="st1" d="M238.44,509.98l0.37-0.03c0.05,0.12,0.13,0.35,0.19,0.42c0.1,0.16,0.27,0.23,0.49,0.23
						c0.25,0,0.49-0.14,0.5-0.63l0.28-0.02c0,0.03,0,0.07,0,0.11c0,0.54-0.33,0.88-0.76,0.88c-0.16,0-0.31-0.04-0.41-0.12
						c0.13,0.43,0.29,1.24,0.31,1.98h-0.34C239.04,511.94,238.89,510.91,238.44,509.98z"/>
					<path class="st1" d="M240.63,511.47c0-0.23,0.15-0.38,0.37-0.38c0.2,0,0.36,0.15,0.36,0.38c0,0.23-0.15,0.37-0.36,0.37h0
						C240.78,511.84,240.63,511.69,240.63,511.47z"/>
					<path class="st1" d="M243.42,509.84l0.23,0.18c-0.49,0.77-1.16,1.89-1.67,2.88l-0.25-0.17
						C242.1,512.02,242.92,510.62,243.42,509.84z M241.82,510.19c0-0.15,0.11-0.27,0.26-0.27c0.15,0,0.26,0.11,0.26,0.27
						c0,0.17-0.1,0.27-0.26,0.27C241.93,510.47,241.82,510.36,241.82,510.19z M243.29,512.27c0.15,0,0.26,0.11,0.26,0.26
						c0,0.17-0.1,0.27-0.26,0.27c-0.15,0-0.26-0.1-0.26-0.27C243.03,512.38,243.14,512.27,243.29,512.27z"/>
				</g>
			</g>
		</g>
		<g class="st5">
			<g>
				<defs>
					<rect id="SVGID_00000173861986479219993740000002984432187629070763_" x="274.26" y="507.62" width="11.31" height="6.6"/>
				</defs>
				<clipPath id="SVGID_00000014612853378935178490000017666075144735461803_">
					<use xlink:href="#SVGID_00000173861986479219993740000002984432187629070763_"  style="overflow:visible;"/>
				</clipPath>
				<g style="clip-path:url(#SVGID_00000014612853378935178490000017666075144735461803_);">
					<path class="st1" d="M274.4,509.98l0.37-0.04c0.35,0.74,0.58,1.89,0.61,2.87h-0.34C274.99,511.86,274.81,510.85,274.4,509.98z"
						/>
					<path class="st1" d="M275.71,511.47c0-0.23,0.15-0.38,0.37-0.38c0.2,0,0.36,0.15,0.36,0.38c0,0.23-0.15,0.37-0.36,0.37h0
						C275.86,511.84,275.71,511.69,275.71,511.47z"/>
					<path class="st1" d="M278.5,509.84l0.23,0.18c-0.49,0.77-1.16,1.89-1.67,2.88l-0.25-0.17
						C277.18,512.02,278,510.62,278.5,509.84z M276.9,510.19c0-0.15,0.11-0.27,0.26-0.27c0.15,0,0.26,0.11,0.26,0.27
						c0,0.17-0.1,0.27-0.26,0.27C277.01,510.47,276.9,510.36,276.9,510.19z M278.37,512.27c0.15,0,0.26,0.11,0.26,0.26
						c0,0.17-0.1,0.27-0.26,0.27c-0.15,0-0.26-0.1-0.26-0.27C278.11,512.38,278.22,512.27,278.37,512.27z"/>
				</g>
			</g>
		</g>
	</g>
	<g>
		<defs>
			<rect id="SVGID_00000030473994595622004940000017704314532858715549_" x="-54.97" y="533.42" width="346.22" height="14.81"/>
		</defs>
		<clipPath id="SVGID_00000086683414491519131280000003427009039362392511_">
			<use xlink:href="#SVGID_00000030473994595622004940000017704314532858715549_"  style="overflow:visible;"/>
		</clipPath>
		
			<linearGradient id="SVGID_00000081640155444074044430000014040465452757363857_" gradientUnits="userSpaceOnUse" x1="-156.0553" y1="696.6128" x2="-155.0553" y2="696.6128" gradientTransform="matrix(346.2222 0 0 -346.2222 53974.8359 241723.6406)">
			<stop  offset="0" style="stop-color:#FFBC10"/>
			<stop  offset="1" style="stop-color:#FFFFFF"/>
		</linearGradient>
		
			<rect x="-54.97" y="533.42" style="clip-path:url(#SVGID_00000086683414491519131280000003427009039362392511_);fill:url(#SVGID_00000081640155444074044430000014040465452757363857_);" width="346.22" height="14.81"/>
	</g>
	<g>
		<path class="st4" d="M-48.99,544.01l0.38-1.84h-0.73v-0.65h0.86l0.32-1.57h-1.18v-0.64h1.31l0.38-1.86h0.65l-0.38,1.86h1.36
			l0.38-1.86h0.65l-0.38,1.86h0.75v0.64h-0.88l-0.32,1.57h1.2v0.65h-1.33l-0.38,1.84h-0.65l0.37-1.84h-1.36l-0.38,1.84H-48.99z
			 M-47.84,541.52h1.36l0.32-1.57h-1.36L-47.84,541.52z"/>
		<path class="st4" d="M-41.48,543.9v-4h-1.47v4h-0.78v-4h-0.69v-0.6h0.69v-0.45c0-0.46,0.1-0.81,0.29-1.05
			c0.2-0.24,0.51-0.36,0.93-0.36c0.28,0,0.54,0.03,0.79,0.1l-0.12,0.66c-0.15-0.03-0.29-0.04-0.42-0.04c-0.27,0-0.45,0.05-0.55,0.16
			c-0.1,0.11-0.15,0.33-0.15,0.68v0.3h1.47v-0.45c0-0.46,0.1-0.81,0.29-1.05s0.51-0.36,0.93-0.36c0.28,0,0.54,0.03,0.79,0.1
			l-0.12,0.66c-0.15-0.03-0.29-0.04-0.42-0.04c-0.27,0-0.45,0.05-0.55,0.16c-0.1,0.11-0.15,0.33-0.15,0.68v0.3h0.89v0.6h-0.89v4
			H-41.48z"/>
		<path class="st4" d="M-38.47,543.9h-0.72v-6.34h0.78v2.26c0.33-0.41,0.75-0.62,1.26-0.62c0.28,0,0.55,0.06,0.8,0.17
			s0.46,0.27,0.62,0.48c0.16,0.21,0.29,0.46,0.38,0.75c0.09,0.29,0.14,0.6,0.14,0.94c0,0.79-0.19,1.4-0.58,1.83s-0.86,0.64-1.4,0.64
			c-0.54,0-0.97-0.23-1.28-0.68V543.9z M-38.48,541.57c0,0.55,0.08,0.95,0.23,1.19c0.25,0.4,0.58,0.6,1,0.6
			c0.34,0,0.63-0.15,0.88-0.44c0.25-0.3,0.37-0.74,0.37-1.32c0-0.6-0.12-1.04-0.36-1.33c-0.24-0.29-0.53-0.43-0.86-0.43
			c-0.34,0-0.63,0.15-0.88,0.44C-38.36,540.58-38.48,541.01-38.48,541.57z"/>
		<path class="st4" d="M-31.26,542.22l0.77,0.1c-0.08,0.53-0.3,0.94-0.64,1.24c-0.34,0.3-0.77,0.45-1.27,0.45
			c-0.63,0-1.13-0.21-1.52-0.62s-0.57-1-0.57-1.77c0-0.5,0.08-0.93,0.25-1.3c0.16-0.37,0.42-0.65,0.75-0.84
			c0.34-0.19,0.7-0.28,1.1-0.28c0.5,0,0.91,0.13,1.23,0.38c0.32,0.25,0.52,0.61,0.61,1.08l-0.76,0.12c-0.07-0.31-0.2-0.54-0.38-0.7
			s-0.4-0.23-0.66-0.23c-0.39,0-0.71,0.14-0.96,0.42c-0.25,0.28-0.37,0.73-0.37,1.33c0,0.62,0.12,1.07,0.35,1.35
			c0.24,0.28,0.55,0.42,0.93,0.42c0.31,0,0.56-0.09,0.77-0.28C-31.45,542.9-31.32,542.61-31.26,542.22z"/>
		<path class="st4" d="M-27.51,540.83c0,0.26-0.02,0.56-0.06,0.9c-0.01,0.08-0.05,0.39-0.12,0.9h-0.15c0-0.07,0.01-0.27,0.02-0.6
			c0-0.61-0.08-1.18-0.25-1.71c-0.13-0.41-0.31-0.8-0.54-1.16c-0.12-0.18-0.28-0.41-0.49-0.67l0.42-0.93
			c0.23,0.27,0.41,0.53,0.55,0.76c0.2,0.33,0.34,0.68,0.45,1.05C-27.57,539.81-27.51,540.29-27.51,540.83z"/>
		<path class="st4" d="M-22.7,540.68c-0.08,0.25-0.14,0.45-0.18,0.61c-0.04,0.16-0.09,0.38-0.14,0.67
			c-0.25-0.14-0.44-0.26-0.58-0.35c-0.09-0.07-0.26-0.2-0.51-0.39c0.06-0.26,0.12-0.48,0.17-0.65c0.05-0.17,0.12-0.39,0.22-0.67
			c0.16,0.14,0.32,0.28,0.49,0.4C-23.12,540.39-22.94,540.51-22.7,540.68z"/>
	</g>
	<g>
		<g class="st5">
			<g>
				<defs>
					<rect id="SVGID_00000147910341530791471750000003418866346190367906_" x="-51" y="552.98" width="14.72" height="6.6"/>
				</defs>
				<clipPath id="SVGID_00000000204837208934397120000010980605699060203438_">
					<use xlink:href="#SVGID_00000147910341530791471750000003418866346190367906_"  style="overflow:visible;"/>
				</clipPath>
				<g style="clip-path:url(#SVGID_00000000204837208934397120000010980605699060203438_);">
					<path class="st0" d="M-50.86,555.34l0.37-0.04c0.35,0.74,0.58,1.89,0.61,2.87h-0.34C-50.27,557.22-50.45,556.21-50.86,555.34z"
						/>
					<path class="st0" d="M-49.55,556.83c0-0.23,0.15-0.38,0.37-0.38c0.2,0,0.36,0.15,0.36,0.38c0,0.23-0.15,0.37-0.36,0.37h0
						C-49.4,557.2-49.55,557.05-49.55,556.83z"/>
					<path class="st0" d="M-48.4,556.83c0-0.23,0.15-0.38,0.37-0.38c0.2,0,0.36,0.15,0.36,0.38c0,0.23-0.15,0.37-0.36,0.37h0
						C-48.26,557.2-48.4,557.05-48.4,556.83z"/>
					<path class="st0" d="M-45.62,555.2l0.23,0.18c-0.49,0.77-1.16,1.89-1.67,2.88l-0.25-0.17
						C-46.94,557.38-46.12,555.98-45.62,555.2z M-47.22,555.55c0-0.15,0.11-0.27,0.26-0.27c0.15,0,0.26,0.11,0.26,0.27
						c0,0.17-0.1,0.27-0.26,0.27C-47.11,555.83-47.22,555.72-47.22,555.55z M-45.75,557.63c0.15,0,0.26,0.11,0.26,0.26
						c0,0.17-0.1,0.27-0.26,0.27c-0.15,0-0.26-0.1-0.26-0.27C-46.01,557.74-45.9,557.63-45.75,557.63z"/>
				</g>
			</g>
		</g>
		<g class="st5">
			<g>
				<defs>
					<rect id="SVGID_00000030444715147742648600000004397384248650983586_" x="-13.34" y="552.98" width="11.31" height="6.6"/>
				</defs>
				<clipPath id="SVGID_00000076565670524586934440000006079603528611318152_">
					<use xlink:href="#SVGID_00000030444715147742648600000004397384248650983586_"  style="overflow:visible;"/>
				</clipPath>
				<g style="clip-path:url(#SVGID_00000076565670524586934440000006079603528611318152_);">
					<path class="st0" d="M-11.97,556.82c-0.08,0.02-0.18,0.03-0.34,0.03c-0.45,0-0.84-0.26-0.84-0.76c0-0.46,0.36-0.81,0.74-0.81
						c0.33,0,0.62,0.24,0.72,1.03c0.09,0.83,0.12,1.26,0.29,1.85h-0.35C-11.87,557.72-11.92,557.22-11.97,556.82z M-12,556.48
						c-0.05-0.69-0.24-0.83-0.47-0.83s-0.39,0.2-0.39,0.41c0,0.31,0.26,0.44,0.62,0.44C-12.16,556.5-12.04,556.49-12,556.48z"/>
					<path class="st0" d="M-11.06,556.83c0-0.23,0.15-0.38,0.37-0.38c0.2,0,0.36,0.15,0.36,0.38c0,0.23-0.15,0.37-0.36,0.37h0
						C-10.91,557.2-11.06,557.05-11.06,556.83z"/>
					<path class="st0" d="M-8.27,555.2l0.23,0.18c-0.49,0.77-1.16,1.89-1.67,2.88l-0.25-0.17C-9.59,557.38-8.77,555.98-8.27,555.2z
						 M-9.87,555.55c0-0.15,0.11-0.27,0.26-0.27c0.15,0,0.26,0.11,0.26,0.27c0,0.17-0.1,0.27-0.26,0.27
						C-9.76,555.83-9.87,555.72-9.87,555.55z M-8.4,557.63c0.15,0,0.26,0.11,0.26,0.26c0,0.17-0.1,0.27-0.26,0.27
						c-0.15,0-0.26-0.1-0.26-0.27C-8.66,557.74-8.55,557.63-8.4,557.63z"/>
				</g>
			</g>
		</g>
		<g class="st5">
			<g>
				<defs>
					<rect id="SVGID_00000121987195947839269610000010596262338866272133_" x="22.61" y="552.98" width="11.31" height="6.6"/>
				</defs>
				<clipPath id="SVGID_00000001647051649090508450000016376363700771832756_">
					<use xlink:href="#SVGID_00000121987195947839269610000010596262338866272133_"  style="overflow:visible;"/>
				</clipPath>
				<g style="clip-path:url(#SVGID_00000001647051649090508450000016376363700771832756_);">
					<path class="st0" d="M23.53,555.34l0.4-0.03c0.15,0.68,0.47,1.97,0.92,2.85h-0.4c-0.29-0.6-0.62-1.73-0.72-2.33h-0.01
						c-0.08,0.55-0.36,1.6-0.63,2.33h-0.37C22.97,557.56,23.36,556.21,23.53,555.34z"/>
					<path class="st0" d="M25.16,556.83c0-0.23,0.15-0.38,0.37-0.38c0.2,0,0.36,0.15,0.36,0.38c0,0.23-0.15,0.37-0.36,0.37h0
						C25.3,557.2,25.16,557.05,25.16,556.83z"/>
					<path class="st0" d="M27.94,555.2l0.23,0.18c-0.49,0.77-1.16,1.89-1.67,2.88l-0.25-0.17C26.62,557.38,27.44,555.98,27.94,555.2
						z M26.34,555.55c0-0.15,0.11-0.27,0.26-0.27c0.15,0,0.26,0.11,0.26,0.27c0,0.17-0.1,0.27-0.26,0.27
						C26.45,555.83,26.34,555.72,26.34,555.55z M27.81,557.63c0.15,0,0.26,0.11,0.26,0.26c0,0.17-0.1,0.27-0.26,0.27
						c-0.15,0-0.26-0.1-0.26-0.27C27.55,557.74,27.66,557.63,27.81,557.63z"/>
				</g>
			</g>
		</g>
		<g class="st5">
			<g>
				<defs>
					<rect id="SVGID_00000158750357872945878610000001337294662312644994_" x="58.56" y="552.98" width="11.31" height="6.6"/>
				</defs>
				<clipPath id="SVGID_00000037693633526294609880000011786082207077624973_">
					<use xlink:href="#SVGID_00000158750357872945878610000001337294662312644994_"  style="overflow:visible;"/>
				</clipPath>
				<g style="clip-path:url(#SVGID_00000037693633526294609880000011786082207077624973_);">
					<path class="st0" d="M58.66,555.34l0.41-0.02c0.3,0.61,0.63,1.75,0.73,2.4h0.01c0.08-0.53,0.35-1.67,0.62-2.4l0.37,0.02
						c-0.26,0.6-0.64,1.96-0.81,2.83h-0.4C59.44,557.41,59.13,556.22,58.66,555.34z"/>
					<path class="st0" d="M61.11,556.83c0-0.23,0.15-0.38,0.37-0.38c0.2,0,0.36,0.15,0.36,0.38c0,0.23-0.15,0.37-0.36,0.37h0
						C61.25,557.2,61.11,557.05,61.11,556.83z"/>
					<path class="st0" d="M63.89,555.2l0.23,0.18c-0.49,0.77-1.16,1.89-1.67,2.88l-0.25-0.17C62.57,557.38,63.39,555.98,63.89,555.2
						z M62.29,555.55c0-0.15,0.11-0.27,0.26-0.27c0.15,0,0.26,0.11,0.26,0.27c0,0.17-0.1,0.27-0.26,0.27
						C62.4,555.83,62.29,555.72,62.29,555.55z M63.76,557.63c0.15,0,0.26,0.11,0.26,0.26c0,0.17-0.1,0.27-0.26,0.27
						c-0.15,0-0.26-0.1-0.26-0.27C63.5,557.74,63.61,557.63,63.76,557.63z"/>
				</g>
			</g>
		</g>
		<g class="st5">
			<g>
				<defs>
					<rect id="SVGID_00000166633503920465099590000015539512757897394067_" x="94.51" y="552.98" width="11.31" height="6.6"/>
				</defs>
				<clipPath id="SVGID_00000103263557717436281550000012779901320746217114_">
					<use xlink:href="#SVGID_00000166633503920465099590000015539512757897394067_"  style="overflow:visible;"/>
				</clipPath>
				<g style="clip-path:url(#SVGID_00000103263557717436281550000012779901320746217114_);">
					<path class="st0" d="M95.63,555.71h-0.46c-0.17,0-0.44,0-0.6-0.05l0.05-0.36c0.12,0.03,0.37,0.04,0.7,0.04h0.67
						c-0.02,0.21-0.03,0.44-0.03,0.66c0,0.55,0.1,1.5,0.4,2.17H96C95.67,557.38,95.61,556.41,95.63,555.71z"/>
					<path class="st0" d="M96.72,556.83c0-0.23,0.15-0.38,0.37-0.38c0.2,0,0.36,0.15,0.36,0.38c0,0.23-0.15,0.37-0.36,0.37h0
						C96.87,557.2,96.72,557.05,96.72,556.83z"/>
					<path class="st0" d="M99.5,555.2l0.23,0.18c-0.49,0.77-1.16,1.89-1.67,2.88l-0.25-0.17C98.19,557.38,99,555.98,99.5,555.2z
						 M97.91,555.55c0-0.15,0.11-0.27,0.26-0.27c0.15,0,0.26,0.11,0.26,0.27c0,0.17-0.1,0.27-0.26,0.27
						C98.01,555.83,97.91,555.72,97.91,555.55z M99.37,557.63c0.15,0,0.26,0.11,0.26,0.26c0,0.17-0.1,0.27-0.26,0.27
						c-0.15,0-0.26-0.1-0.26-0.27C99.12,557.74,99.23,557.63,99.37,557.63z"/>
				</g>
			</g>
		</g>
		<g class="st5">
			<g>
				<defs>
					<rect id="SVGID_00000043458851251526246690000010056868686092074123_" x="130.46" y="552.98" width="11.31" height="6.6"/>
				</defs>
				<clipPath id="SVGID_00000039125418275002651250000017488208700937248702_">
					<use xlink:href="#SVGID_00000043458851251526246690000010056868686092074123_"  style="overflow:visible;"/>
				</clipPath>
				<g style="clip-path:url(#SVGID_00000039125418275002651250000017488208700937248702_);">
					<path class="st0" d="M130.71,556.94c0-0.86,0.42-1.51,0.91-1.51c0.52,0,0.83,0.8,0.83,1.39c0,0.61-0.24,1.15-0.92,1.15
						C131.16,557.97,130.71,557.73,130.71,556.94z M132.16,556.86c0-0.19-0.09-1.03-0.59-1.03c-0.36,0-0.57,0.58-0.57,0.99
						c0,0.44,0.15,0.76,0.56,0.76C132.03,557.58,132.16,557.18,132.16,556.86z"/>
					<path class="st0" d="M132.89,556.83c0-0.23,0.15-0.38,0.37-0.38c0.2,0,0.36,0.15,0.36,0.38c0,0.23-0.15,0.37-0.36,0.37h0
						C133.04,557.2,132.89,557.05,132.89,556.83z"/>
					<path class="st0" d="M135.68,555.2l0.23,0.18c-0.49,0.77-1.16,1.89-1.67,2.88l-0.25-0.17
						C134.36,557.38,135.18,555.98,135.68,555.2z M134.08,555.55c0-0.15,0.11-0.27,0.26-0.27c0.15,0,0.26,0.11,0.26,0.27
						c0,0.17-0.1,0.27-0.26,0.27C134.19,555.83,134.08,555.72,134.08,555.55z M135.55,557.63c0.15,0,0.26,0.11,0.26,0.26
						c0,0.17-0.1,0.27-0.26,0.27c-0.15,0-0.26-0.1-0.26-0.27C135.29,557.74,135.4,557.63,135.55,557.63z"/>
				</g>
			</g>
		</g>
		<g class="st5">
			<g>
				<defs>
					<rect id="SVGID_00000076573068817391833620000001346611284048843699_" x="166.41" y="552.98" width="11.31" height="6.6"/>
				</defs>
				<clipPath id="SVGID_00000081638540718298708000000017480671982254493366_">
					<use xlink:href="#SVGID_00000076573068817391833620000001346611284048843699_"  style="overflow:visible;"/>
				</clipPath>
				<g style="clip-path:url(#SVGID_00000081638540718298708000000017480671982254493366_);">
					<path class="st0" d="M167.34,556.8c-0.43-0.03-0.65-0.27-0.65-0.57c0-0.46,0.48-0.83,1.07-0.95l0.1,0.33
						c-0.67,0.16-0.87,0.41-0.87,0.6c0,0.16,0.17,0.3,0.62,0.3c0.11,0,0.24-0.01,0.35-0.03v0.33c-0.6,0.14-0.78,0.43-0.78,0.63
						c0,0.16,0.11,0.35,0.47,0.35c0.17,0,0.4-0.04,0.63-0.16l0.02,0.34c-0.17,0.13-0.4,0.2-0.69,0.2c-0.36,0-0.74-0.22-0.74-0.67
						C166.87,557.21,167.07,556.96,167.34,556.8z"/>
					<path class="st0" d="M168.59,556.83c0-0.23,0.15-0.38,0.37-0.38c0.2,0,0.36,0.15,0.36,0.38c0,0.23-0.15,0.37-0.36,0.37h0
						C168.73,557.2,168.59,557.05,168.59,556.83z"/>
					<path class="st0" d="M171.37,555.2l0.23,0.18c-0.49,0.77-1.16,1.89-1.67,2.88l-0.25-0.17
						C170.05,557.38,170.87,555.98,171.37,555.2z M169.77,555.55c0-0.15,0.11-0.27,0.26-0.27c0.15,0,0.26,0.11,0.26,0.27
						c0,0.17-0.1,0.27-0.26,0.27C169.88,555.83,169.77,555.72,169.77,555.55z M171.24,557.63c0.15,0,0.26,0.11,0.26,0.26
						c0,0.17-0.1,0.27-0.26,0.27c-0.15,0-0.26-0.1-0.26-0.27C170.98,557.74,171.09,557.63,171.24,557.63z"/>
				</g>
			</g>
		</g>
		<g class="st5">
			<g>
				<defs>
					<rect id="SVGID_00000065069643227369389690000010410845793591024801_" x="202.36" y="552.98" width="11.31" height="6.6"/>
				</defs>
				<clipPath id="SVGID_00000083075552718342029980000000697674593522541216_">
					<use xlink:href="#SVGID_00000065069643227369389690000010410845793591024801_"  style="overflow:visible;"/>
				</clipPath>
				<g style="clip-path:url(#SVGID_00000083075552718342029980000000697674593522541216_);">
					<path class="st0" d="M202.5,555.34l0.37-0.04c0.05,0.09,0.14,0.34,0.17,0.42c0.07,0.17,0.17,0.23,0.3,0.23
						c0.17,0,0.27-0.1,0.27-0.33c0-0.07-0.01-0.2-0.03-0.27l0.25-0.02c0.04,0.41,0.14,0.5,0.27,0.5s0.19-0.07,0.19-0.34
						c0-0.04,0-0.09-0.01-0.14l0.25-0.02c0.01,0.08,0.02,0.17,0.02,0.26c0,0.41-0.2,0.59-0.4,0.59c-0.1,0-0.22-0.04-0.32-0.19
						c-0.07,0.23-0.23,0.33-0.4,0.33c-0.07,0-0.19-0.03-0.26-0.11c0.14,0.46,0.27,1.18,0.3,1.97h-0.34
						C203.09,557.16,202.91,556.2,202.5,555.34z"/>
					<path class="st0" d="M204.89,556.83c0-0.23,0.15-0.38,0.37-0.38c0.2,0,0.36,0.15,0.36,0.38c0,0.23-0.15,0.37-0.36,0.37h0
						C205.04,557.2,204.89,557.05,204.89,556.83z"/>
					<path class="st0" d="M207.68,555.2l0.23,0.18c-0.49,0.77-1.16,1.89-1.67,2.88l-0.25-0.17
						C206.36,557.38,207.18,555.98,207.68,555.2z M206.08,555.55c0-0.15,0.11-0.27,0.26-0.27c0.15,0,0.26,0.11,0.26,0.27
						c0,0.17-0.1,0.27-0.26,0.27C206.19,555.83,206.08,555.72,206.08,555.55z M207.55,557.63c0.15,0,0.26,0.11,0.26,0.26
						c0,0.17-0.1,0.27-0.26,0.27c-0.15,0-0.26-0.1-0.26-0.27C207.29,557.74,207.4,557.63,207.55,557.63z"/>
				</g>
			</g>
		</g>
		<g class="st5">
			<g>
				<defs>
					<rect id="SVGID_00000114055295685198890450000012442838994682681017_" x="238.31" y="552.98" width="11.31" height="6.6"/>
				</defs>
				<clipPath id="SVGID_00000158718012354376435590000004636193176616338875_">
					<use xlink:href="#SVGID_00000114055295685198890450000012442838994682681017_"  style="overflow:visible;"/>
				</clipPath>
				<g style="clip-path:url(#SVGID_00000158718012354376435590000004636193176616338875_);">
					<path class="st0" d="M238.44,555.34l0.37-0.03c0.05,0.12,0.13,0.35,0.19,0.42c0.1,0.16,0.27,0.23,0.49,0.23
						c0.25,0,0.49-0.14,0.5-0.63l0.28-0.02c0,0.03,0,0.07,0,0.11c0,0.54-0.33,0.88-0.76,0.88c-0.16,0-0.31-0.04-0.41-0.12
						c0.13,0.43,0.29,1.24,0.31,1.98h-0.34C239.04,557.3,238.89,556.27,238.44,555.34z"/>
					<path class="st0" d="M240.63,556.83c0-0.23,0.15-0.38,0.37-0.38c0.2,0,0.36,0.15,0.36,0.38c0,0.23-0.15,0.37-0.36,0.37h0
						C240.78,557.2,240.63,557.05,240.63,556.83z"/>
					<path class="st0" d="M243.42,555.2l0.23,0.18c-0.49,0.77-1.16,1.89-1.67,2.88l-0.25-0.17
						C242.1,557.38,242.92,555.98,243.42,555.2z M241.82,555.55c0-0.15,0.11-0.27,0.26-0.27c0.15,0,0.26,0.11,0.26,0.27
						c0,0.17-0.1,0.27-0.26,0.27C241.93,555.83,241.82,555.72,241.82,555.55z M243.29,557.63c0.15,0,0.26,0.11,0.26,0.26
						c0,0.17-0.1,0.27-0.26,0.27c-0.15,0-0.26-0.1-0.26-0.27C243.03,557.74,243.14,557.63,243.29,557.63z"/>
				</g>
			</g>
		</g>
		<g class="st5">
			<g>
				<defs>
					<rect id="SVGID_00000099628251576170677030000000747864713174836905_" x="274.26" y="552.98" width="11.31" height="6.6"/>
				</defs>
				<clipPath id="SVGID_00000072971510539942215220000003261950421899501201_">
					<use xlink:href="#SVGID_00000099628251576170677030000000747864713174836905_"  style="overflow:visible;"/>
				</clipPath>
				<g style="clip-path:url(#SVGID_00000072971510539942215220000003261950421899501201_);">
					<path class="st0" d="M274.4,555.34l0.37-0.04c0.35,0.74,0.58,1.89,0.61,2.87h-0.34C274.99,557.22,274.81,556.21,274.4,555.34z"
						/>
					<path class="st0" d="M275.71,556.83c0-0.23,0.15-0.38,0.37-0.38c0.2,0,0.36,0.15,0.36,0.38c0,0.23-0.15,0.37-0.36,0.37h0
						C275.86,557.2,275.71,557.05,275.71,556.83z"/>
					<path class="st0" d="M278.5,555.2l0.23,0.18c-0.49,0.77-1.16,1.89-1.67,2.88l-0.25-0.17C277.18,557.38,278,555.98,278.5,555.2z
						 M276.9,555.55c0-0.15,0.11-0.27,0.26-0.27c0.15,0,0.26,0.11,0.26,0.27c0,0.17-0.1,0.27-0.26,0.27
						C277.01,555.83,276.9,555.72,276.9,555.55z M278.37,557.63c0.15,0,0.26,0.11,0.26,0.26c0,0.17-0.1,0.27-0.26,0.27
						c-0.15,0-0.26-0.1-0.26-0.27C278.11,557.74,278.22,557.63,278.37,557.63z"/>
				</g>
			</g>
		</g>
	</g>
	<g>
		<defs>
			<rect id="SVGID_00000138572692779175566730000001006371211885663906_" x="-54.97" y="578.78" width="346.22" height="14.81"/>
		</defs>
		<clipPath id="SVGID_00000124882555417496245060000006594104735108165021_">
			<use xlink:href="#SVGID_00000138572692779175566730000001006371211885663906_"  style="overflow:visible;"/>
		</clipPath>
		
			<linearGradient id="SVGID_00000053541766158308394670000002271153374913552513_" gradientUnits="userSpaceOnUse" x1="-156.0553" y1="696.6128" x2="-155.0553" y2="696.6128" gradientTransform="matrix(346.2222 0 0 -346.2222 53974.8359 241769)">
			<stop  offset="0" style="stop-color:#8FC63E"/>
			<stop  offset="1" style="stop-color:#FFFFFF"/>
		</linearGradient>
		
			<rect x="-54.97" y="578.78" style="clip-path:url(#SVGID_00000124882555417496245060000006594104735108165021_);fill:url(#SVGID_00000053541766158308394670000002271153374913552513_);" width="346.22" height="14.81"/>
	</g>
	<text transform="matrix(1 0 0 1 -49.4393 589.2637)" class="st4" style="font-family:'ArialMT'; font-size:8.8642px;">#</text>
	<g>
		<path class="st4" d="M-40.33,586.55l-0.16,1.37c-0.43-0.44-0.8-0.99-1.12-1.65s-0.55-1.35-0.69-2.08h-0.03
			c-0.12,0.65-0.23,1.14-0.32,1.47c-0.12,0.44-0.27,0.82-0.44,1.16c-0.18,0.36-0.43,0.73-0.75,1.12v-1.24
			c0.42-0.38,0.75-0.88,1.01-1.5c0.25-0.6,0.44-1.36,0.59-2.29h0.08c0.15,0.69,0.31,1.26,0.49,1.71c0.17,0.43,0.37,0.8,0.6,1.12
			C-40.88,586.01-40.63,586.27-40.33,586.55z"/>
		<path class="st4" d="M-39.08,589.26v-3.99h-0.69v-0.61h0.69v-0.49c0-0.31,0.03-0.54,0.08-0.69c0.08-0.2,0.21-0.37,0.4-0.49
			c0.19-0.13,0.45-0.19,0.79-0.19c0.22,0,0.46,0.03,0.73,0.08l-0.12,0.68c-0.16-0.03-0.31-0.04-0.46-0.04c-0.24,0-0.4,0.05-0.5,0.15
			c-0.1,0.1-0.15,0.29-0.15,0.57v0.42h0.9v0.61h-0.9v3.99H-39.08z"/>
		<path class="st4" d="M-33.8,587.58l0.77,0.1c-0.08,0.53-0.3,0.94-0.64,1.24c-0.34,0.3-0.77,0.45-1.27,0.45
			c-0.63,0-1.13-0.21-1.52-0.62s-0.57-1-0.57-1.77c0-0.5,0.08-0.93,0.25-1.3c0.16-0.37,0.42-0.65,0.75-0.84
			c0.34-0.19,0.7-0.28,1.1-0.28c0.5,0,0.91,0.13,1.23,0.38c0.32,0.25,0.52,0.61,0.61,1.08l-0.76,0.12c-0.07-0.31-0.2-0.54-0.38-0.7
			s-0.4-0.23-0.66-0.23c-0.39,0-0.71,0.14-0.96,0.42c-0.25,0.28-0.37,0.73-0.37,1.33c0,0.62,0.12,1.07,0.35,1.35
			c0.24,0.28,0.55,0.42,0.93,0.42c0.31,0,0.56-0.09,0.77-0.28C-33.99,588.26-33.86,587.97-33.8,587.58z"/>
		<path class="st4" d="M-29.32,586.89l-0.16,0.99c-0.19-0.12-0.33-0.24-0.42-0.35c-0.16-0.18-0.28-0.4-0.37-0.66
			c-0.1-0.32-0.16-0.71-0.16-1.19c0-0.17,0.01-0.34,0.02-0.51c0-0.05,0.03-0.34,0.1-0.86c-0.14,0.03-0.24,0.04-0.31,0.06
			c-0.21,0.04-0.39,0.06-0.52,0.06c-0.45,0-0.74-0.05-0.88-0.14c-0.11-0.07-0.16-0.22-0.16-0.45c0-0.09,0-0.24,0.01-0.43
			s0.01-0.33,0.01-0.43l0.16-0.02c0.07,0.16,0.14,0.26,0.2,0.32c0.13,0.11,0.35,0.16,0.66,0.16c0.23,0,0.48-0.03,0.77-0.08
			c0.06-0.01,0.22-0.04,0.46-0.1c-0.05,0.3-0.08,0.52-0.1,0.67c-0.03,0.25-0.05,0.47-0.05,0.66c0,0.46,0.04,0.86,0.12,1.17
			c0.06,0.25,0.16,0.48,0.29,0.69C-29.62,586.52-29.5,586.67-29.32,586.89z"/>
		<path class="st4" d="M-24.12,583.3c0,0.36-0.07,0.64-0.21,0.83s-0.35,0.29-0.63,0.29c-0.16,0-0.31-0.03-0.43-0.08
			c-0.12-0.05-0.21-0.13-0.27-0.24c-0.1,0.16-0.22,0.28-0.37,0.37s-0.33,0.12-0.54,0.12c0.11,0.21,0.18,0.37,0.23,0.49
			c0.08,0.21,0.15,0.42,0.19,0.65c0.04,0.23,0.07,0.51,0.07,0.84c0,0.18-0.01,0.36-0.02,0.53c-0.02,0.17-0.06,0.47-0.13,0.92h-0.17
			c0-0.63-0.04-1.16-0.12-1.56c-0.08-0.41-0.22-0.8-0.42-1.19c-0.15-0.29-0.41-0.72-0.79-1.27l0.32-1.03
			c0.15,0.25,0.31,0.44,0.48,0.56c0.19,0.14,0.41,0.21,0.65,0.21c0.25,0,0.44-0.08,0.58-0.25c0.12-0.14,0.2-0.35,0.25-0.62h0.14
			c0.02,0.27,0.08,0.45,0.16,0.56c0.08,0.11,0.2,0.16,0.35,0.16c0.3,0,0.48-0.24,0.54-0.72h0.14c0,0.06,0,0.15,0.01,0.25
			S-24.12,583.28-24.12,583.3z"/>
		<path class="st4" d="M-19.9,587.78l0.81,0.1c-0.13,0.47-0.36,0.84-0.71,1.09c-0.34,0.26-0.78,0.39-1.32,0.39
			c-0.67,0-1.21-0.21-1.6-0.62c-0.39-0.41-0.59-0.99-0.59-1.74c0-0.77,0.2-1.37,0.6-1.8c0.4-0.43,0.91-0.64,1.55-0.64
			c0.61,0,1.12,0.21,1.51,0.63c0.39,0.42,0.58,1.01,0.58,1.77c0,0.05,0,0.12,0,0.21h-3.43c0.03,0.51,0.17,0.89,0.43,1.16
			s0.58,0.4,0.96,0.4c0.29,0,0.53-0.07,0.73-0.22S-20.02,588.11-19.9,587.78z M-22.46,586.52h2.57c-0.03-0.39-0.13-0.68-0.29-0.87
			c-0.25-0.3-0.57-0.45-0.97-0.45c-0.36,0-0.66,0.12-0.9,0.36C-22.3,585.8-22.43,586.12-22.46,586.52z"/>
	</g>
	<g>
		<g class="st5">
			<g>
				<defs>
					<rect id="SVGID_00000049212287282936290470000010940731488095912356_" x="-51" y="598.34" width="14.72" height="6.6"/>
				</defs>
				<clipPath id="SVGID_00000114052975211847119230000008965768671189580931_">
					<use xlink:href="#SVGID_00000049212287282936290470000010940731488095912356_"  style="overflow:visible;"/>
				</clipPath>
				<g style="clip-path:url(#SVGID_00000114052975211847119230000008965768671189580931_);">
					<path class="st2" d="M-50.86,600.7l0.37-0.04c0.35,0.74,0.58,1.89,0.61,2.87h-0.34C-50.27,602.58-50.45,601.57-50.86,600.7z"/>
					<path class="st2" d="M-49.55,602.19c0-0.23,0.15-0.38,0.37-0.38c0.2,0,0.36,0.15,0.36,0.38c0,0.23-0.15,0.37-0.36,0.37h0
						C-49.4,602.56-49.55,602.41-49.55,602.19z"/>
					<path class="st2" d="M-48.4,602.19c0-0.23,0.15-0.38,0.37-0.38c0.2,0,0.36,0.15,0.36,0.38c0,0.23-0.15,0.37-0.36,0.37h0
						C-48.26,602.56-48.4,602.41-48.4,602.19z"/>
					<path class="st2" d="M-45.62,600.56l0.23,0.18c-0.49,0.77-1.16,1.89-1.67,2.88l-0.25-0.17
						C-46.94,602.74-46.12,601.34-45.62,600.56z M-47.22,600.91c0-0.15,0.11-0.27,0.26-0.27c0.15,0,0.26,0.11,0.26,0.27
						c0,0.17-0.1,0.27-0.26,0.27C-47.11,601.19-47.22,601.08-47.22,600.91z M-45.75,602.99c0.15,0,0.26,0.11,0.26,0.26
						c0,0.17-0.1,0.27-0.26,0.27c-0.15,0-0.26-0.1-0.26-0.27C-46.01,603.1-45.9,602.99-45.75,602.99z"/>
				</g>
			</g>
		</g>
		<g class="st5">
			<g>
				<defs>
					<rect id="SVGID_00000052075562276645706040000013882825859207586464_" x="-13.34" y="598.34" width="11.31" height="6.6"/>
				</defs>
				<clipPath id="SVGID_00000052790114788151648560000000499066733092303030_">
					<use xlink:href="#SVGID_00000052075562276645706040000013882825859207586464_"  style="overflow:visible;"/>
				</clipPath>
				<g style="clip-path:url(#SVGID_00000052790114788151648560000000499066733092303030_);">
					<path class="st2" d="M-11.97,602.18c-0.08,0.02-0.18,0.03-0.34,0.03c-0.45,0-0.84-0.26-0.84-0.76c0-0.46,0.36-0.81,0.74-0.81
						c0.33,0,0.62,0.24,0.72,1.03c0.09,0.83,0.12,1.26,0.29,1.85h-0.35C-11.87,603.08-11.92,602.58-11.97,602.18z M-12,601.84
						c-0.05-0.69-0.24-0.83-0.47-0.83s-0.39,0.2-0.39,0.41c0,0.31,0.26,0.44,0.62,0.44C-12.16,601.86-12.04,601.85-12,601.84z"/>
					<path class="st2" d="M-11.06,602.19c0-0.23,0.15-0.38,0.37-0.38c0.2,0,0.36,0.15,0.36,0.38c0,0.23-0.15,0.37-0.36,0.37h0
						C-10.91,602.56-11.06,602.41-11.06,602.19z"/>
					<path class="st2" d="M-8.27,600.56l0.23,0.18c-0.49,0.77-1.16,1.89-1.67,2.88l-0.25-0.17C-9.59,602.74-8.77,601.34-8.27,600.56
						z M-9.87,600.91c0-0.15,0.11-0.27,0.26-0.27c0.15,0,0.26,0.11,0.26,0.27c0,0.17-0.1,0.27-0.26,0.27
						C-9.76,601.19-9.87,601.08-9.87,600.91z M-8.4,602.99c0.15,0,0.26,0.11,0.26,0.26c0,0.17-0.1,0.27-0.26,0.27
						c-0.15,0-0.26-0.1-0.26-0.27C-8.66,603.1-8.55,602.99-8.4,602.99z"/>
				</g>
			</g>
		</g>
		<g class="st5">
			<g>
				<defs>
					<rect id="SVGID_00000155858093302330057610000010037588957276172170_" x="22.61" y="598.34" width="11.31" height="6.6"/>
				</defs>
				<clipPath id="SVGID_00000107587486118612108330000000648052441203779471_">
					<use xlink:href="#SVGID_00000155858093302330057610000010037588957276172170_"  style="overflow:visible;"/>
				</clipPath>
				<g style="clip-path:url(#SVGID_00000107587486118612108330000000648052441203779471_);">
					<path class="st2" d="M23.53,600.7l0.4-0.03c0.15,0.68,0.47,1.97,0.92,2.85h-0.4c-0.29-0.6-0.62-1.73-0.72-2.33h-0.01
						c-0.08,0.55-0.36,1.6-0.63,2.33h-0.37C22.97,602.92,23.36,601.57,23.53,600.7z"/>
					<path class="st2" d="M25.16,602.19c0-0.23,0.15-0.38,0.37-0.38c0.2,0,0.36,0.15,0.36,0.38c0,0.23-0.15,0.37-0.36,0.37h0
						C25.3,602.56,25.16,602.41,25.16,602.19z"/>
					<path class="st2" d="M27.94,600.56l0.23,0.18c-0.49,0.77-1.16,1.89-1.67,2.88l-0.25-0.17
						C26.62,602.74,27.44,601.34,27.94,600.56z M26.34,600.91c0-0.15,0.11-0.27,0.26-0.27c0.15,0,0.26,0.11,0.26,0.27
						c0,0.17-0.1,0.27-0.26,0.27C26.45,601.19,26.34,601.08,26.34,600.91z M27.81,602.99c0.15,0,0.26,0.11,0.26,0.26
						c0,0.17-0.1,0.27-0.26,0.27c-0.15,0-0.26-0.1-0.26-0.27C27.55,603.1,27.66,602.99,27.81,602.99z"/>
				</g>
			</g>
		</g>
		<g class="st5">
			<g>
				<defs>
					<rect id="SVGID_00000059301162697586880760000000528189102632811150_" x="58.56" y="598.34" width="11.31" height="6.6"/>
				</defs>
				<clipPath id="SVGID_00000037688109407959601690000007879262397090644917_">
					<use xlink:href="#SVGID_00000059301162697586880760000000528189102632811150_"  style="overflow:visible;"/>
				</clipPath>
				<g style="clip-path:url(#SVGID_00000037688109407959601690000007879262397090644917_);">
					<path class="st2" d="M58.66,600.7l0.41-0.02c0.3,0.61,0.63,1.75,0.73,2.4h0.01c0.08-0.53,0.35-1.67,0.62-2.4l0.37,0.02
						c-0.26,0.6-0.64,1.96-0.81,2.83h-0.4C59.44,602.77,59.13,601.58,58.66,600.7z"/>
					<path class="st2" d="M61.11,602.19c0-0.23,0.15-0.38,0.37-0.38c0.2,0,0.36,0.15,0.36,0.38c0,0.23-0.15,0.37-0.36,0.37h0
						C61.25,602.56,61.11,602.41,61.11,602.19z"/>
					<path class="st2" d="M63.89,600.56l0.23,0.18c-0.49,0.77-1.16,1.89-1.67,2.88l-0.25-0.17
						C62.57,602.74,63.39,601.34,63.89,600.56z M62.29,600.91c0-0.15,0.11-0.27,0.26-0.27c0.15,0,0.26,0.11,0.26,0.27
						c0,0.17-0.1,0.27-0.26,0.27C62.4,601.19,62.29,601.08,62.29,600.91z M63.76,602.99c0.15,0,0.26,0.11,0.26,0.26
						c0,0.17-0.1,0.27-0.26,0.27c-0.15,0-0.26-0.1-0.26-0.27C63.5,603.1,63.61,602.99,63.76,602.99z"/>
				</g>
			</g>
		</g>
		<g class="st5">
			<g>
				<defs>
					<rect id="SVGID_00000083807838459441087650000011809800108728899505_" x="94.51" y="598.34" width="11.31" height="6.6"/>
				</defs>
				<clipPath id="SVGID_00000080909473909173731410000014329132570658492589_">
					<use xlink:href="#SVGID_00000083807838459441087650000011809800108728899505_"  style="overflow:visible;"/>
				</clipPath>
				<g style="clip-path:url(#SVGID_00000080909473909173731410000014329132570658492589_);">
					<path class="st2" d="M95.63,601.07h-0.46c-0.17,0-0.44,0-0.6-0.05l0.05-0.36c0.12,0.03,0.37,0.04,0.7,0.04h0.67
						c-0.02,0.21-0.03,0.44-0.03,0.66c0,0.55,0.1,1.5,0.4,2.17H96C95.67,602.74,95.61,601.77,95.63,601.07z"/>
					<path class="st2" d="M96.72,602.19c0-0.23,0.15-0.38,0.37-0.38c0.2,0,0.36,0.15,0.36,0.38c0,0.23-0.15,0.37-0.36,0.37h0
						C96.87,602.56,96.72,602.41,96.72,602.19z"/>
					<path class="st2" d="M99.5,600.56l0.23,0.18c-0.49,0.77-1.16,1.89-1.67,2.88l-0.25-0.17C98.19,602.74,99,601.34,99.5,600.56z
						 M97.91,600.91c0-0.15,0.11-0.27,0.26-0.27c0.15,0,0.26,0.11,0.26,0.27c0,0.17-0.1,0.27-0.26,0.27
						C98.01,601.19,97.91,601.08,97.91,600.91z M99.37,602.99c0.15,0,0.26,0.11,0.26,0.26c0,0.17-0.1,0.27-0.26,0.27
						c-0.15,0-0.26-0.1-0.26-0.27C99.12,603.1,99.23,602.99,99.37,602.99z"/>
				</g>
			</g>
		</g>
		<g class="st5">
			<g>
				<defs>
					<rect id="SVGID_00000090280846163260233310000014042781153639691191_" x="130.46" y="598.34" width="11.31" height="6.6"/>
				</defs>
				<clipPath id="SVGID_00000056402483755957842310000014841643436086537905_">
					<use xlink:href="#SVGID_00000090280846163260233310000014042781153639691191_"  style="overflow:visible;"/>
				</clipPath>
				<g style="clip-path:url(#SVGID_00000056402483755957842310000014841643436086537905_);">
					<path class="st2" d="M130.71,602.3c0-0.86,0.42-1.51,0.91-1.51c0.52,0,0.83,0.8,0.83,1.39c0,0.61-0.24,1.15-0.92,1.15
						C131.16,603.33,130.71,603.09,130.71,602.3z M132.16,602.22c0-0.19-0.09-1.03-0.59-1.03c-0.36,0-0.57,0.58-0.57,0.99
						c0,0.44,0.15,0.76,0.56,0.76C132.03,602.94,132.16,602.54,132.16,602.22z"/>
					<path class="st2" d="M132.89,602.19c0-0.23,0.15-0.38,0.37-0.38c0.2,0,0.36,0.15,0.36,0.38c0,0.23-0.15,0.37-0.36,0.37h0
						C133.04,602.56,132.89,602.41,132.89,602.19z"/>
					<path class="st2" d="M135.68,600.56l0.23,0.18c-0.49,0.77-1.16,1.89-1.67,2.88l-0.25-0.17
						C134.36,602.74,135.18,601.34,135.68,600.56z M134.08,600.91c0-0.15,0.11-0.27,0.26-0.27c0.15,0,0.26,0.11,0.26,0.27
						c0,0.17-0.1,0.27-0.26,0.27C134.19,601.19,134.08,601.08,134.08,600.91z M135.55,602.99c0.15,0,0.26,0.11,0.26,0.26
						c0,0.17-0.1,0.27-0.26,0.27c-0.15,0-0.26-0.1-0.26-0.27C135.29,603.1,135.4,602.99,135.55,602.99z"/>
				</g>
			</g>
		</g>
		<g class="st5">
			<g>
				<defs>
					<rect id="SVGID_00000014606206323736419310000001843726106726191800_" x="166.41" y="598.34" width="11.31" height="6.6"/>
				</defs>
				<clipPath id="SVGID_00000022524236188417096670000010748169596327336079_">
					<use xlink:href="#SVGID_00000014606206323736419310000001843726106726191800_"  style="overflow:visible;"/>
				</clipPath>
				<g style="clip-path:url(#SVGID_00000022524236188417096670000010748169596327336079_);">
					<path class="st2" d="M167.34,602.16c-0.43-0.03-0.65-0.27-0.65-0.57c0-0.46,0.48-0.83,1.07-0.95l0.1,0.33
						c-0.67,0.16-0.87,0.41-0.87,0.6c0,0.16,0.17,0.3,0.62,0.3c0.11,0,0.24-0.01,0.35-0.03v0.33c-0.6,0.14-0.78,0.43-0.78,0.63
						c0,0.16,0.11,0.35,0.47,0.35c0.17,0,0.4-0.04,0.63-0.16l0.02,0.34c-0.17,0.13-0.4,0.2-0.69,0.2c-0.36,0-0.74-0.22-0.74-0.67
						C166.87,602.57,167.07,602.32,167.34,602.16z"/>
					<path class="st2" d="M168.59,602.19c0-0.23,0.15-0.38,0.37-0.38c0.2,0,0.36,0.15,0.36,0.38c0,0.23-0.15,0.37-0.36,0.37h0
						C168.73,602.56,168.59,602.41,168.59,602.19z"/>
					<path class="st2" d="M171.37,600.56l0.23,0.18c-0.49,0.77-1.16,1.89-1.67,2.88l-0.25-0.17
						C170.05,602.74,170.87,601.34,171.37,600.56z M169.77,600.91c0-0.15,0.11-0.27,0.26-0.27c0.15,0,0.26,0.11,0.26,0.27
						c0,0.17-0.1,0.27-0.26,0.27C169.88,601.19,169.77,601.08,169.77,600.91z M171.24,602.99c0.15,0,0.26,0.11,0.26,0.26
						c0,0.17-0.1,0.27-0.26,0.27c-0.15,0-0.26-0.1-0.26-0.27C170.98,603.1,171.09,602.99,171.24,602.99z"/>
				</g>
			</g>
		</g>
		<g class="st5">
			<g>
				<defs>
					<rect id="SVGID_00000089551185463666151080000000166793487586343861_" x="202.36" y="598.34" width="11.31" height="6.6"/>
				</defs>
				<clipPath id="SVGID_00000088839254612916067530000001124580356598344637_">
					<use xlink:href="#SVGID_00000089551185463666151080000000166793487586343861_"  style="overflow:visible;"/>
				</clipPath>
				<g style="clip-path:url(#SVGID_00000088839254612916067530000001124580356598344637_);">
					<path class="st2" d="M202.5,600.7l0.37-0.04c0.05,0.09,0.14,0.34,0.17,0.42c0.07,0.17,0.17,0.23,0.3,0.23
						c0.17,0,0.27-0.1,0.27-0.33c0-0.07-0.01-0.2-0.03-0.27l0.25-0.02c0.04,0.41,0.14,0.5,0.27,0.5s0.19-0.07,0.19-0.34
						c0-0.04,0-0.09-0.01-0.14l0.25-0.02c0.01,0.08,0.02,0.17,0.02,0.26c0,0.41-0.2,0.59-0.4,0.59c-0.1,0-0.22-0.04-0.32-0.19
						c-0.07,0.23-0.23,0.33-0.4,0.33c-0.07,0-0.19-0.03-0.26-0.11c0.14,0.46,0.27,1.18,0.3,1.97h-0.34
						C203.09,602.52,202.91,601.56,202.5,600.7z"/>
					<path class="st2" d="M204.89,602.19c0-0.23,0.15-0.38,0.37-0.38c0.2,0,0.36,0.15,0.36,0.38c0,0.23-0.15,0.37-0.36,0.37h0
						C205.04,602.56,204.89,602.41,204.89,602.19z"/>
					<path class="st2" d="M207.68,600.56l0.23,0.18c-0.49,0.77-1.16,1.89-1.67,2.88l-0.25-0.17
						C206.36,602.74,207.18,601.34,207.68,600.56z M206.08,600.91c0-0.15,0.11-0.27,0.26-0.27c0.15,0,0.26,0.11,0.26,0.27
						c0,0.17-0.1,0.27-0.26,0.27C206.19,601.19,206.08,601.08,206.08,600.91z M207.55,602.99c0.15,0,0.26,0.11,0.26,0.26
						c0,0.17-0.1,0.27-0.26,0.27c-0.15,0-0.26-0.1-0.26-0.27C207.29,603.1,207.4,602.99,207.55,602.99z"/>
				</g>
			</g>
		</g>
		<g class="st5">
			<g>
				<defs>
					<rect id="SVGID_00000031922027059837473450000011909910373256679358_" x="238.31" y="598.34" width="11.31" height="6.6"/>
				</defs>
				<clipPath id="SVGID_00000150794652526495380210000009734262965819374983_">
					<use xlink:href="#SVGID_00000031922027059837473450000011909910373256679358_"  style="overflow:visible;"/>
				</clipPath>
				<g style="clip-path:url(#SVGID_00000150794652526495380210000009734262965819374983_);">
					<path class="st2" d="M238.44,600.7l0.37-0.03c0.05,0.12,0.13,0.35,0.19,0.42c0.1,0.16,0.27,0.23,0.49,0.23
						c0.25,0,0.49-0.14,0.5-0.63l0.28-0.02c0,0.03,0,0.07,0,0.11c0,0.54-0.33,0.88-0.76,0.88c-0.16,0-0.31-0.04-0.41-0.12
						c0.13,0.43,0.29,1.24,0.31,1.98h-0.34C239.04,602.66,238.89,601.63,238.44,600.7z"/>
					<path class="st2" d="M240.63,602.19c0-0.23,0.15-0.38,0.37-0.38c0.2,0,0.36,0.15,0.36,0.38c0,0.23-0.15,0.37-0.36,0.37h0
						C240.78,602.56,240.63,602.41,240.63,602.19z"/>
					<path class="st2" d="M243.42,600.56l0.23,0.18c-0.49,0.77-1.16,1.89-1.67,2.88l-0.25-0.17
						C242.1,602.74,242.92,601.34,243.42,600.56z M241.82,600.91c0-0.15,0.11-0.27,0.26-0.27c0.15,0,0.26,0.11,0.26,0.27
						c0,0.17-0.1,0.27-0.26,0.27C241.93,601.19,241.82,601.08,241.82,600.91z M243.29,602.99c0.15,0,0.26,0.11,0.26,0.26
						c0,0.17-0.1,0.27-0.26,0.27c-0.15,0-0.26-0.1-0.26-0.27C243.03,603.1,243.14,602.99,243.29,602.99z"/>
				</g>
			</g>
		</g>
		<g class="st5">
			<g>
				<defs>
					<rect id="SVGID_00000129900446445384125130000013580877689702984583_" x="274.26" y="598.34" width="11.31" height="6.6"/>
				</defs>
				<clipPath id="SVGID_00000183207973566572416750000004294784416430704573_">
					<use xlink:href="#SVGID_00000129900446445384125130000013580877689702984583_"  style="overflow:visible;"/>
				</clipPath>
				<g style="clip-path:url(#SVGID_00000183207973566572416750000004294784416430704573_);">
					<path class="st2" d="M274.4,600.7l0.37-0.04c0.35,0.74,0.58,1.89,0.61,2.87h-0.34C274.99,602.58,274.81,601.57,274.4,600.7z"/>
					<path class="st2" d="M275.71,602.19c0-0.23,0.15-0.38,0.37-0.38c0.2,0,0.36,0.15,0.36,0.38c0,0.23-0.15,0.37-0.36,0.37h0
						C275.86,602.56,275.71,602.41,275.71,602.19z"/>
					<path class="st2" d="M278.5,600.56l0.23,0.18c-0.49,0.77-1.16,1.89-1.67,2.88l-0.25-0.17
						C277.18,602.74,278,601.34,278.5,600.56z M276.9,600.91c0-0.15,0.11-0.27,0.26-0.27c0.15,0,0.26,0.11,0.26,0.27
						c0,0.17-0.1,0.27-0.26,0.27C277.01,601.19,276.9,601.08,276.9,600.91z M278.37,602.99c0.15,0,0.26,0.11,0.26,0.26
						c0,0.17-0.1,0.27-0.26,0.27c-0.15,0-0.26-0.1-0.26-0.27C278.11,603.1,278.22,602.99,278.37,602.99z"/>
				</g>
			</g>
		</g>
	</g>
</g>
</svg>
